<?xml version="1.0" encoding="iso-8859-1"?>
<!-- Uploaded to: SVG Repo, www.svgrepo.com, Generator: SVG Repo Mixer Tools -->
<svg fill="#000000" height="800px" width="800px" version="1.1" id="Layer_1" xmlns="http://www.w3.org/2000/svg" xmlns:xlink="http://www.w3.org/1999/xlink" 
	 viewBox="0 0 512 512" xml:space="preserve">
<g>
	<g>
		<path d="M507.699,273.811l-51.2-76.809c-4.745-7.125-12.74-11.401-21.299-11.401H332.8c-14.14,0-25.6,11.46-25.6,25.6v109.901
			L47.462,61.365c-0.009-0.009-0.017-0.017-0.026-0.026L34.654,48.548c-5.001-5.001-13.099-5.001-18.099,0
			c-5.001,5.001-5.001,13.099,0,18.099l9.045,9.054v148.83c0,0.077,0.085,0.12,0.094,0.196
			c0.273,19.644,10.163,29.662,17.485,36.949c6.067,6.025,8.021,8.414,8.021,13.525c0,7.066-5.751,12.8-12.8,12.8
			c-7.049,0-12.8-5.734-12.8-12.8c0-7.074-5.726-12.8-12.8-12.8c-7.074,0-12.8,5.726-12.8,12.8c0,21.171,17.229,38.4,38.4,38.4
			s38.4-17.229,38.4-38.4c0-16.188-9.003-25.148-15.573-31.684c-6.025-6.007-10.027-9.967-10.027-19.516V101.301l128,128v109.901
			H25.6c-14.14,0-25.6,11.46-25.6,25.6v25.6c0,14.14,11.46,25.6,25.6,25.6h26.889c5.931,29.21,31.744,51.2,62.711,51.2
			s56.781-21.99,62.711-51.2h156.186c5.948,29.175,31.795,51.2,62.703,51.2s56.755-22.025,62.703-51.2H486.4
			c14.14,0,25.6-11.46,25.6-25.6V288.011C512,282.959,510.507,278.018,507.699,273.811z M52.489,390.402H25.6v-25.6h38.673
			C58.633,372.269,54.417,380.887,52.489,390.402z M115.2,441.602c-21.171,0-38.4-17.229-38.4-38.4s17.229-38.4,38.4-38.4
			s38.4,17.229,38.4,38.4S136.371,441.602,115.2,441.602z M204.8,254.901l84.301,84.301H204.8V254.901z M307.2,390.402H177.911
			c-1.929-9.515-6.144-18.133-11.785-25.6H307.2V390.402z M332.8,211.202h102.4l42.667,64.009L332.8,275.202V211.202z
			 M396.8,441.602c-21.205,0-38.4-17.195-38.4-38.4s17.195-38.4,38.4-38.4c21.205,0,38.4,17.195,38.4,38.4
			S418.005,441.602,396.8,441.602z M486.4,326.402h-25.6v25.6h25.6v38.4h-26.897c-5.948-29.175-31.795-51.2-62.703-51.2
			c-30.908,0-56.755,22.025-62.703,51.2H332.8v-25.6v-64l153.6,0.009V326.402z"/>
	</g>
</g>
</svg>