<?xml version="1.0" encoding="iso-8859-1"?>
<!-- Uploaded to: SVG Repo, www.svgrepo.com, Generator: SVG Repo Mixer Tools -->
<svg fill="#000000" version="1.1" id="Layer_1" xmlns="http://www.w3.org/2000/svg" xmlns:xlink="http://www.w3.org/1999/xlink" 
	 viewBox="0 0 512.031 512.031" xml:space="preserve">
<g transform="translate(-1)">
	<g>
		<g>
			<path d="M385.031,288.016v-85.333c0-11.776,9.536-21.333,21.333-21.333h87.851l-26.091-52.203
				c-3.627-7.232-11.008-11.797-19.093-11.797h-128c-11.797,0-21.333,9.557-21.333,21.333v37.419L188.21,39.845
				c-4.053-4.949-10.112-7.829-16.512-7.829H65.031H43.698c-11.797,0-21.333,9.557-21.333,21.333v85.333
				c0,11.776,9.536,21.333,21.333,21.333c11.776,0,21.333,9.579,21.333,21.333c0,11.755-9.557,21.333-21.333,21.333
				c-3.819,0-7.403-0.96-10.688-2.859c-10.197-5.909-23.253-2.389-29.141,7.787c-5.909,10.219-2.389,23.253,7.808,29.163
				c9.707,5.611,20.8,8.576,32.021,8.576c35.285,0,64-28.715,64-64c0-27.819-17.835-51.541-42.667-60.352V87.056l146.965,179.627
				H22.365c-11.797,0-21.333,9.557-21.333,21.333v106.667c0,11.776,9.536,21.333,21.333,21.333h21.333c0,35.285,28.715,64,64,64
				s64-28.715,64-64h170.667c0,35.285,28.715,64,64,64c35.285,0,64-28.715,64-64h21.333c11.797,0,21.333-9.557,21.333-21.333
				v-85.333H406.365C394.567,309.349,385.031,299.792,385.031,288.016z M107.698,437.349c-11.776,0-21.333-9.579-21.333-21.333
				c0-4.693,1.835-8.832,4.416-12.352c8.171-10.901,25.664-10.901,33.835,0c2.581,3.52,4.416,7.659,4.416,12.352
				C129.031,427.77,119.474,437.349,107.698,437.349z M423.282,403.664c2.581,3.52,4.416,7.659,4.416,12.352
				c0,11.755-9.557,21.333-21.333,21.333s-21.333-9.579-21.333-21.333c0-4.693,1.835-8.832,4.416-12.352
				C397.618,392.762,415.111,392.762,423.282,403.664z"/>
			<rect x="427.698" y="224.016" width="85.333" height="42.667"/>
		</g>
	</g>
</g>
</svg>